<svg xmlns="http://www.w3.org/2000/svg" xmlns:xlink="http://www.w3.org/1999/xlink" width="500" zoomAndPan="magnify" viewBox="0 0 375 374.999991" height="500" preserveAspectRatio="xMidYMid meet" version="1.0"><defs><clipPath id="1476f911b8"><path d="M 179.355469 112.5 L 329.355469 112.5 L 329.355469 262.5 L 179.355469 262.5 Z M 179.355469 112.5 " clip-rule="nonzero"/></clipPath><clipPath id="8cd97f6445"><path d="M 0 181.917969 L 167 181.917969 L 167 193.167969 L 0 193.167969 Z M 0 181.917969 " clip-rule="nonzero"/></clipPath></defs><g clip-path="url(#1476f911b8)"><path fill="#a94b47" d="M 256.1875 152.632812 C 256.300781 153.679688 256.460938 154.71875 256.664062 155.753906 C 256.863281 156.785156 257.109375 157.808594 257.398438 158.820312 C 257.6875 159.832031 258.019531 160.832031 258.390625 161.816406 C 258.765625 162.800781 259.179688 163.765625 259.632812 164.714844 C 260.089844 165.664062 260.582031 166.59375 261.117188 167.5 C 261.652344 168.40625 262.222656 169.289062 262.828125 170.148438 C 263.4375 171.007812 264.082031 171.839844 264.761719 172.644531 C 265.4375 173.449219 266.152344 174.222656 266.894531 174.964844 C 267.640625 175.710938 268.414062 176.421875 269.21875 177.101562 C 270.023438 177.78125 270.855469 178.421875 271.710938 179.03125 C 272.570312 179.640625 273.453125 180.210938 274.363281 180.746094 C 275.269531 181.277344 276.199219 181.773438 277.148438 182.226562 C 278.09375 182.683594 279.0625 183.097656 280.046875 183.46875 C 281.03125 183.84375 282.027344 184.175781 283.039062 184.464844 C 284.054688 184.75 285.074219 184.996094 286.109375 185.199219 C 287.140625 185.402344 288.179688 185.558594 289.226562 185.675781 C 299.371094 186.785156 312.460938 187.503906 329.359375 187.503906 C 312.460938 187.503906 299.371094 188.222656 289.226562 189.332031 C 288.179688 189.449219 287.140625 189.605469 286.109375 189.808594 C 285.074219 190.011719 284.054688 190.253906 283.039062 190.542969 C 282.027344 190.832031 281.03125 191.164062 280.046875 191.539062 C 279.0625 191.910156 278.09375 192.324219 277.148438 192.78125 C 276.199219 193.234375 275.269531 193.730469 274.363281 194.261719 C 273.453125 194.796875 272.570312 195.367188 271.710938 195.976562 C 270.855469 196.582031 270.023438 197.226562 269.21875 197.90625 C 268.414062 198.585938 267.640625 199.296875 266.894531 200.039062 C 266.152344 200.785156 265.4375 201.558594 264.761719 202.363281 C 264.082031 203.167969 263.4375 204 262.828125 204.859375 C 262.222656 205.71875 261.652344 206.601562 261.117188 207.507812 C 260.582031 208.414062 260.089844 209.34375 259.632812 210.292969 C 259.179688 211.242188 258.765625 212.207031 258.390625 213.191406 C 258.019531 214.175781 257.6875 215.175781 257.398438 216.1875 C 257.109375 217.199219 256.863281 218.222656 256.664062 219.253906 C 256.460938 220.285156 256.300781 221.328125 256.1875 222.371094 C 255.078125 232.515625 254.359375 245.605469 254.359375 262.507812 C 254.359375 245.605469 253.640625 232.515625 252.527344 222.371094 C 252.414062 221.328125 252.257812 220.285156 252.054688 219.253906 C 251.851562 218.222656 251.605469 217.199219 251.316406 216.1875 C 251.027344 215.175781 250.699219 214.175781 250.324219 213.191406 C 249.953125 212.207031 249.535156 211.242188 249.082031 210.292969 C 248.628906 209.34375 248.132812 208.414062 247.597656 207.507812 C 247.066406 206.601562 246.496094 205.71875 245.886719 204.859375 C 245.277344 204 244.632812 203.167969 243.957031 202.363281 C 243.277344 201.558594 242.566406 200.785156 241.820312 200.039062 C 241.078125 199.296875 240.300781 198.585938 239.5 197.90625 C 238.695312 197.226562 237.863281 196.582031 237.003906 195.976562 C 236.144531 195.367188 235.261719 194.796875 234.355469 194.261719 C 233.445312 193.730469 232.519531 193.234375 231.570312 192.78125 C 230.621094 192.324219 229.652344 191.910156 228.667969 191.539062 C 227.683594 191.164062 226.6875 190.832031 225.675781 190.542969 C 224.664062 190.253906 223.640625 190.011719 222.605469 189.808594 C 221.574219 189.605469 220.535156 189.449219 219.488281 189.332031 C 209.347656 188.222656 196.253906 187.503906 179.355469 187.503906 C 196.253906 187.503906 209.347656 186.785156 219.488281 185.675781 C 220.535156 185.558594 221.574219 185.402344 222.605469 185.199219 C 223.640625 184.996094 224.664062 184.75 225.675781 184.460938 C 226.6875 184.175781 227.683594 183.84375 228.667969 183.46875 C 229.652344 183.097656 230.621094 182.683594 231.570312 182.226562 C 232.519531 181.773438 233.445312 181.277344 234.355469 180.746094 C 235.261719 180.210938 236.144531 179.640625 237.003906 179.03125 C 237.863281 178.421875 238.695312 177.78125 239.5 177.101562 C 240.300781 176.421875 241.078125 175.710938 241.820312 174.964844 C 242.566406 174.222656 243.277344 173.449219 243.957031 172.644531 C 244.632812 171.839844 245.277344 171.007812 245.886719 170.148438 C 246.496094 169.289062 247.066406 168.40625 247.597656 167.5 C 248.132812 166.59375 248.625 165.664062 249.082031 164.714844 C 249.535156 163.765625 249.949219 162.800781 250.324219 161.816406 C 250.699219 160.832031 251.027344 159.832031 251.316406 158.820312 C 251.605469 157.808594 251.851562 156.785156 252.054688 155.753906 C 252.257812 154.71875 252.414062 153.679688 252.527344 152.632812 C 253.640625 142.492188 254.359375 129.402344 254.359375 112.5 C 254.359375 129.398438 255.078125 142.492188 256.1875 152.632812 Z M 256.1875 152.632812 " fill-opacity="1" fill-rule="nonzero"/></g><g clip-path="url(#8cd97f6445)"><path fill="#a94b47" d="M 166.90625 187.496094 L 162.582031 188.742188 L 161.335938 193.066406 L 160.085938 188.742188 L 157.5625 188.011719 L 0.0742188 188.011719 L 0.0742188 186.976562 L 157.5625 186.976562 L 160.085938 186.246094 L 161.335938 181.921875 L 162.582031 186.246094 Z M 166.90625 187.496094 " fill-opacity="1" fill-rule="nonzero"/></g></svg>