<svg xmlns="http://www.w3.org/2000/svg" xmlns:xlink="http://www.w3.org/1999/xlink" width="500" zoomAndPan="magnify" viewBox="0 0 375 374.999991" height="500" preserveAspectRatio="xMidYMid meet" version="1.0"><defs><clipPath id="8143788371"><path d="M 50.257812 117.109375 L 200.257812 117.109375 L 200.257812 267.109375 L 50.257812 267.109375 Z M 50.257812 117.109375 " clip-rule="nonzero"/></clipPath><clipPath id="8480e03d33"><path d="M 208 186.433594 L 374.988281 186.433594 L 374.988281 197.683594 L 208 197.683594 Z M 208 186.433594 " clip-rule="nonzero"/></clipPath></defs><g clip-path="url(#8143788371)"><path fill="#a94b47" d="M 127.089844 157.246094 C 127.203125 158.289062 127.363281 159.332031 127.5625 160.363281 C 127.765625 161.394531 128.011719 162.417969 128.300781 163.429688 C 128.589844 164.441406 128.921875 165.441406 129.292969 166.425781 C 129.667969 167.410156 130.082031 168.375 130.535156 169.324219 C 130.992188 170.273438 131.484375 171.203125 132.019531 172.109375 C 132.550781 173.015625 133.125 173.898438 133.730469 174.757812 C 134.339844 175.617188 134.984375 176.449219 135.660156 177.253906 C 136.339844 178.058594 137.050781 178.832031 137.796875 179.578125 C 138.539062 180.320312 139.316406 181.03125 140.121094 181.710938 C 140.925781 182.390625 141.753906 183.035156 142.613281 183.640625 C 143.472656 184.25 144.355469 184.820312 145.265625 185.355469 C 146.171875 185.890625 147.097656 186.382812 148.046875 186.839844 C 148.996094 187.292969 149.964844 187.707031 150.949219 188.082031 C 151.933594 188.453125 152.929688 188.785156 153.941406 189.074219 C 154.953125 189.363281 155.976562 189.609375 157.011719 189.808594 C 158.042969 190.011719 159.082031 190.171875 160.128906 190.285156 C 170.269531 191.394531 183.363281 192.113281 200.261719 192.113281 C 183.363281 192.113281 170.269531 192.832031 160.128906 193.945312 C 159.082031 194.058594 158.042969 194.214844 157.011719 194.417969 C 155.976562 194.621094 154.953125 194.867188 153.941406 195.15625 C 152.929688 195.445312 151.933594 195.773438 150.949219 196.148438 C 149.964844 196.519531 148.996094 196.933594 148.046875 197.390625 C 147.097656 197.84375 146.171875 198.339844 145.265625 198.875 C 144.355469 199.40625 143.472656 199.976562 142.613281 200.585938 C 141.753906 201.195312 140.925781 201.835938 140.121094 202.515625 C 139.316406 203.195312 138.539062 203.90625 137.796875 204.652344 C 137.050781 205.394531 136.339844 206.167969 135.660156 206.972656 C 134.984375 207.777344 134.339844 208.609375 133.730469 209.46875 C 133.125 210.328125 132.550781 211.210938 132.019531 212.117188 C 131.484375 213.027344 130.992188 213.953125 130.535156 214.902344 C 130.082031 215.851562 129.667969 216.820312 129.292969 217.800781 C 128.921875 218.785156 128.589844 219.785156 128.300781 220.796875 C 128.011719 221.808594 127.765625 222.832031 127.5625 223.863281 C 127.363281 224.898438 127.203125 225.9375 127.089844 226.984375 C 125.976562 237.125 125.257812 250.214844 125.257812 267.117188 C 125.257812 250.21875 124.542969 237.125 123.429688 226.984375 C 123.316406 225.9375 123.15625 224.898438 122.957031 223.863281 C 122.753906 222.832031 122.507812 221.808594 122.21875 220.796875 C 121.929688 219.785156 121.597656 218.785156 121.226562 217.800781 C 120.851562 216.820312 120.4375 215.851562 119.984375 214.902344 C 119.527344 213.953125 119.035156 213.027344 118.5 212.117188 C 117.96875 211.210938 117.394531 210.328125 116.789062 209.46875 C 116.179688 208.609375 115.535156 207.777344 114.855469 206.972656 C 114.179688 206.167969 113.46875 205.394531 112.722656 204.652344 C 111.980469 203.90625 111.203125 203.195312 110.398438 202.515625 C 109.59375 201.835938 108.761719 201.195312 107.90625 200.585938 C 107.046875 199.976562 106.164062 199.40625 105.253906 198.875 C 104.347656 198.339844 103.421875 197.84375 102.472656 197.390625 C 101.523438 196.933594 100.554688 196.519531 99.570312 196.148438 C 98.585938 195.773438 97.589844 195.445312 96.578125 195.15625 C 95.566406 194.867188 94.542969 194.621094 93.507812 194.417969 C 92.476562 194.214844 91.4375 194.058594 90.390625 193.945312 C 80.25 192.832031 67.15625 192.113281 50.257812 192.113281 C 67.15625 192.113281 80.25 191.394531 90.390625 190.285156 C 91.4375 190.171875 92.476562 190.011719 93.507812 189.808594 C 94.542969 189.609375 95.566406 189.363281 96.578125 189.074219 C 97.589844 188.785156 98.585938 188.453125 99.570312 188.082031 C 100.554688 187.707031 101.523438 187.292969 102.472656 186.839844 C 103.421875 186.382812 104.347656 185.890625 105.253906 185.355469 C 106.164062 184.820312 107.046875 184.25 107.90625 183.640625 C 108.761719 183.035156 109.59375 182.390625 110.398438 181.710938 C 111.203125 181.03125 111.980469 180.320312 112.722656 179.578125 C 113.46875 178.832031 114.179688 178.058594 114.855469 177.253906 C 115.535156 176.449219 116.179688 175.617188 116.789062 174.757812 C 117.394531 173.898438 117.96875 173.015625 118.5 172.109375 C 119.035156 171.203125 119.527344 170.273438 119.984375 169.324219 C 120.4375 168.375 120.851562 167.410156 121.226562 166.425781 C 121.597656 165.441406 121.929688 164.441406 122.21875 163.429688 C 122.507812 162.417969 122.753906 161.394531 122.957031 160.363281 C 123.15625 159.332031 123.316406 158.289062 123.429688 157.246094 C 124.542969 147.101562 125.257812 134.011719 125.257812 117.109375 C 125.257812 134.011719 125.976562 147.101562 127.089844 157.246094 Z M 127.089844 157.246094 " fill-opacity="1" fill-rule="nonzero"/></g><g clip-path="url(#8480e03d33)"><path fill="#a94b47" d="M 208.082031 192.105469 L 212.40625 190.855469 L 213.65625 186.53125 L 214.902344 190.855469 L 217.425781 191.585938 L 374.917969 191.585938 L 374.917969 192.625 L 217.425781 192.625 L 214.902344 193.351562 L 213.65625 197.679688 L 212.40625 193.351562 Z M 208.082031 192.105469 " fill-opacity="1" fill-rule="nonzero"/></g></svg>